<?xml version="1.0" encoding="UTF-8"?>
<svg version="1.1" xmlns="http://www.w3.org/2000/svg" width="512" height="512">
<path d="M0 0 C0.7128566 -0.00686325 1.4257132 -0.0137265 2.16017151 -0.02079773 C4.506807 -0.0390364 6.85277202 -0.0352326 9.19946289 -0.02954102 C10.83704342 -0.03410434 12.47462203 -0.03941037 14.11219788 -0.04542542 C17.54102366 -0.0543508 20.96961645 -0.05194012 24.3984375 -0.04199219 C28.78449072 -0.03050478 33.16973856 -0.0507128 37.555686 -0.07990932 C40.93670224 -0.09828841 44.31752611 -0.09797548 47.69857979 -0.0922718 C49.31525362 -0.09211879 50.93194066 -0.09814682 52.54856682 -0.11056328 C54.81283411 -0.12550412 57.07562159 -0.11477548 59.33984375 -0.09765625 C61.26913979 -0.097407 61.26913979 -0.097407 63.2374115 -0.09715271 C68.19870481 0.61387948 71.35577485 2.74405582 74.53540039 6.57202148 C76.2209339 10.55251592 76.48263311 14.44332144 76.92211914 18.71655273 C78.76167456 33.21564224 84.75623052 46.18053098 96.31274414 55.47827148 C109.98010481 65.36335454 124.22344569 68.19554557 140.73461914 66.40405273 C152.0000058 64.20981529 161.13722952 57.92836969 169.92211914 50.82202148 C172.69322172 48.65411149 174.51632937 48.20362332 177.98461914 48.09155273 C178.73227539 48.05416992 179.47993164 48.01678711 180.25024414 47.97827148 C185.81000329 48.93112329 189.9427962 53.36079069 193.80615234 57.21679688 C194.2735936 57.68073349 194.74103485 58.1446701 195.22264099 58.62266541 C196.74859115 60.1398946 198.26720457 61.66422357 199.78540039 63.18920898 C200.8503094 64.25276926 201.91551502 65.31603261 202.98100281 66.37901306 C205.20397814 68.5990508 207.42332301 70.8226382 209.64013672 73.04882812 C212.48257904 75.90270597 215.33396279 78.74745475 218.18809223 81.58963871 C220.38526683 83.77959341 222.57766458 85.97428027 224.7686367 88.17043877 C225.81855653 89.22169257 226.86996356 90.27146322 227.92287636 91.31971931 C229.39016158 92.78193267 230.85089527 94.25039076 232.31005859 95.72070312 C233.1424556 96.55469131 233.9748526 97.3886795 234.83247375 98.24794006 C238.05538633 101.90116378 238.08645715 105.48859079 238.00415039 110.15014648 C237.58844568 113.62640182 235.88858554 115.78809355 233.73461914 118.40405273 C222.04847113 133.33499758 218.17151446 146.71118071 219.73461914 165.40405273 C221.89660992 178.94287926 229.9856477 191.68174774 241.03930664 199.69311523 C250.46162788 205.67424089 258.74803768 208.17167835 269.75561523 209.29199219 C275.06046524 209.88380372 278.55474457 210.81049541 282.73461914 214.40405273 C285.81185176 218.51252853 286.11732689 221.59133574 286.13867188 226.66943359 C286.14896675 227.73871849 286.14896675 227.73871849 286.1594696 228.8296051 C286.17770828 231.17624059 286.17390447 233.52220561 286.16821289 235.86889648 C286.17277622 237.50647701 286.17808224 239.14405563 286.18409729 240.78163147 C286.19302268 244.21045725 286.19061199 247.63905005 286.18066406 251.06787109 C286.16917666 255.45392431 286.18938468 259.83917216 286.2185812 264.22511959 C286.23696029 267.60613584 286.23664735 270.9869597 286.23094368 274.36801338 C286.23079066 275.98468722 286.2368187 277.60137425 286.24923515 279.21800041 C286.26417599 281.4822677 286.25344736 283.74505518 286.23632812 286.00927734 C286.23607887 287.93857338 286.23607887 287.93857338 286.23582458 289.90684509 C285.52479239 294.8681384 283.39461606 298.02520845 279.56665039 301.20483398 C275.58615596 302.89036749 271.69535044 303.15206671 267.42211914 303.59155273 C252.92302963 305.43110815 239.95814089 311.42566411 230.66040039 322.98217773 C220.77531734 336.64953841 217.9431263 350.89287928 219.73461914 367.40405273 C221.92885659 378.66943939 228.21030218 387.80666312 235.31665039 396.59155273 C237.51552893 399.40224045 237.91370881 401.20058198 237.98461914 404.71655273 C238.01040039 405.47581055 238.03618164 406.23506836 238.06274414 407.01733398 C237.34420316 412.24386424 233.64593142 415.74467117 230.05126953 419.34619141 C229.35799309 420.04472481 229.35799309 420.04472481 228.65071106 420.75737 C227.13286582 422.2839649 225.60788513 423.80318902 224.08227539 425.32202148 C223.01968132 426.38596392 221.9573842 427.450203 220.89537048 428.51472473 C218.67355475 430.73948237 216.44817881 432.96059921 214.22021484 435.17919922 C211.36754154 438.02046468 208.52395989 440.87063352 205.68297672 443.72358227 C203.49298547 445.92080545 201.29824694 448.11323681 199.10204887 450.30425453 C198.05162254 451.35334879 197.00267411 452.40392502 195.95524788 453.45601463 C194.49074317 454.92560798 193.01996312 456.38862203 191.54736328 457.85009766 C190.29518761 459.09988655 190.29518761 459.09988655 189.01771545 460.37492371 C184.78725689 464.13479411 181.4954531 464.87068425 175.95336914 464.70874023 C172.51053107 464.23595613 170.33551255 462.54561405 167.73461914 460.40405273 C155.16120771 450.56309836 142.68226248 444.80669895 126.34790039 445.56030273 C112.00937849 447.35910403 99.08606628 453.14893933 89.38305664 464.04467773 C87.31825517 466.75134633 85.49226735 469.48962674 83.73461914 472.40405273 C83.24219727 473.2097168 82.74977539 474.01538086 82.24243164 474.84545898 C78.63010368 481.67468256 77.6972961 488.73133959 76.89746094 496.32373047 C76.27715915 501.65209683 75.34659818 505.20806302 71.73461914 509.40405273 C67.62583444 512.48094235 64.54745548 512.78675998 59.46923828 512.80810547 C58.39995338 512.81840034 58.39995338 512.81840034 57.30906677 512.8289032 C54.96243129 512.84714187 52.61646626 512.84333807 50.26977539 512.83764648 C48.63219486 512.84220981 46.99461625 512.84751584 45.35704041 512.85353088 C41.92821463 512.86245627 38.49962183 512.86004558 35.07080078 512.85009766 C30.68474756 512.83861025 26.29949972 512.85881827 21.91355228 512.88801479 C18.53253604 512.90639388 15.15171217 512.90608095 11.77065849 512.90037727 C10.15398466 512.90022426 8.53729762 512.90625229 6.92067146 512.91866875 C4.65640417 512.93360959 2.3936167 512.92288095 0.12939453 512.90576172 C-1.15680283 512.90559555 -2.44300018 512.90542938 -3.76817322 512.90525818 C-8.72946653 512.19422599 -11.88653657 510.06404965 -15.06616211 506.23608398 C-16.75169561 502.25558955 -17.01339483 498.36478403 -17.45288086 494.09155273 C-19.07855593 481.27823479 -24.05993217 467.92708144 -34.26538086 459.40405273 C-47.44205183 449.47163787 -61.46967729 444.13008979 -78.14038086 446.02905273 C-90.78665703 448.11164643 -100.17801242 453.74495808 -109.96850586 461.80639648 C-113.53523633 464.55983402 -116.57612729 464.87232442 -120.92163086 464.93530273 C-126.33150261 463.70906514 -130.40800925 459.51275834 -134.22924805 455.69897461 C-135.16331482 454.77121216 -136.09738159 453.84344971 -137.05975342 452.88757324 C-138.06084315 451.88290435 -139.06167112 450.87797457 -140.06225586 449.87280273 C-141.10234912 448.83405846 -142.14273898 447.79561109 -143.18341064 446.75744629 C-145.35511172 444.58868282 -147.52318177 442.41637103 -149.6887207 440.24145508 C-152.4615698 437.45718375 -155.24334037 434.68202654 -158.02787399 431.90944672 C-160.1744826 429.77006926 -162.31629994 427.62594614 -164.45670319 425.48036194 C-165.48067793 424.45505565 -166.50613322 423.43122573 -167.53310394 422.40892029 C-168.9666108 420.98050221 -170.39301377 419.54496566 -171.8190918 418.10913086 C-173.03770905 416.88812683 -173.03770905 416.88812683 -174.28094482 415.64245605 C-178.01101774 411.43500998 -178.73090653 408.12704239 -178.57006836 402.62280273 C-178.09728426 399.17996466 -176.40694218 397.00494614 -174.26538086 394.40405273 C-162.57923285 379.47310789 -158.70227618 366.09692476 -160.26538086 347.40405273 C-162.42737164 333.86522621 -170.51640941 321.12635773 -181.57006836 313.11499023 C-190.9923896 307.13386458 -199.2787994 304.63642712 -210.28637695 303.51611328 C-215.59122696 302.92430174 -219.08550629 301.99761006 -223.26538086 298.40405273 C-226.34261348 294.29557694 -226.64808861 291.21676973 -226.66943359 286.13867188 C-226.67629684 285.42581528 -226.6831601 284.71295868 -226.69023132 283.97850037 C-226.70847 281.63186488 -226.70466619 279.28589986 -226.69897461 276.93920898 C-226.70353794 275.30162845 -226.70884396 273.66404984 -226.71485901 272.026474 C-226.7237844 268.59764822 -226.72137371 265.16905542 -226.71142578 261.74023438 C-226.69993838 257.35418116 -226.7201464 252.96893331 -226.74934292 248.58298588 C-226.767722 245.20196963 -226.76740907 241.82114577 -226.7617054 238.44009209 C-226.76155238 236.82341825 -226.76758042 235.20673122 -226.77999687 233.59010506 C-226.79493771 231.32583777 -226.78420908 229.06305029 -226.76708984 226.79882812 C-226.76692368 225.51263077 -226.76675751 224.22643341 -226.7665863 222.90126038 C-226.05555411 217.93996707 -223.92537778 214.78289702 -220.09741211 211.60327148 C-216.11691768 209.91773798 -212.22611216 209.65603876 -207.95288086 209.21655273 C-193.45379135 207.37699732 -180.48890261 201.38244135 -171.19116211 189.82592773 C-161.30607906 176.15856706 -158.47388802 161.91522619 -160.26538086 145.40405273 C-162.4596183 134.13866607 -168.7410639 125.00144235 -175.84741211 116.21655273 C-178.0153221 113.44545015 -178.46581027 111.6223425 -178.57788086 108.15405273 C-178.61526367 107.40639648 -178.65264648 106.65874023 -178.69116211 105.88842773 C-177.7469819 100.37926617 -173.38406139 96.27141877 -169.56030273 92.44018555 C-168.63254028 91.50611877 -167.70477783 90.572052 -166.74890137 89.60968018 C-165.74423247 88.60859045 -164.73930269 87.60776247 -163.73413086 86.60717773 C-162.69538659 85.56708447 -161.65693921 84.52669461 -160.61877441 83.48602295 C-158.45001095 81.31432187 -156.27769915 79.14625183 -154.1027832 76.98071289 C-151.31851188 74.2078638 -148.54335466 71.42609322 -145.77077484 68.6415596 C-143.63139739 66.49495099 -141.48727427 64.35313365 -139.34169006 62.21273041 C-138.31638378 61.18875566 -137.29255385 60.16330037 -136.27024841 59.13632965 C-134.84183034 57.70282279 -133.40629378 56.27641983 -131.97045898 54.8503418 C-131.1564563 54.0379303 -130.34245361 53.2255188 -129.50378418 52.38848877 C-125.29633811 48.65841585 -121.98837052 47.93852706 -116.48413086 48.09936523 C-113.04129278 48.57214934 -110.86627427 50.26249142 -108.26538086 52.40405273 C-93.33443602 64.09020074 -79.95825288 67.96715742 -61.26538086 66.40405273 C-47.72655434 64.24206195 -34.98768585 56.15302418 -26.97631836 45.09936523 C-20.9951927 35.677044 -18.49775524 27.3906342 -17.37744141 16.38305664 C-16.78562987 11.07820664 -15.85893818 7.5839273 -12.26538086 3.40405273 C-8.15690506 0.32682011 -5.07809785 0.02134499 0 0 Z M-25.76147461 209.18139648 C-39.51395816 226.45896856 -43.95517008 245.63631011 -42.26538086 267.40405273 C-39.98561876 285.68235696 -28.78452662 302.90844409 -14.57788086 314.21655273 C2.77374443 326.48965355 21.8989175 330.75333624 42.9543457 328.12719727 C60.38006352 325.13811428 77.27315163 314.26957014 87.82446289 300.25170898 C99.91659507 282.22478801 104.81425357 262.83290418 101.10961914 241.18920898 C96.56149776 221.83938898 84.61508915 204.91148986 67.73461914 194.40405273 C36.23324381 176.72131484 -1.41898093 182.09608661 -25.76147461 209.18139648 Z " fill="#CBCBCB" transform="translate(226.265380859375,-0.404052734375)"/>
<path d="M0 0 C1.83201849 1.56070783 3.6436135 3.14560855 5.4375 4.75 C6.20078613 5.4294165 6.20078613 5.4294165 6.97949219 6.12255859 C26.73575608 23.97525542 39.0281764 47.86542497 44.4375 73.75 C44.62223877 74.5946582 44.80697754 75.43931641 44.99731445 76.30957031 C46.43790417 83.4030827 46.78689042 90.27215109 46.75 97.5 C46.74262817 99.2178772 46.74262817 99.2178772 46.73510742 100.97045898 C46.61574454 109.61416785 45.75796487 117.39445512 43.4375 125.75 C43.09311606 127.11051677 42.74939635 128.47120181 42.40625 129.83203125 C33.95634849 161.96960271 12.907865 189.3352856 -15.671875 206.234375 C-41.75660552 220.99155849 -73.06065639 227.01296121 -102.5625 220.75 C-103.2622998 220.6046582 -103.96209961 220.45931641 -104.68310547 220.30957031 C-122.22768003 216.54760504 -138.1072932 209.39770976 -152.5625 198.75 C-153.68591797 197.95916016 -153.68591797 197.95916016 -154.83203125 197.15234375 C-166.86946834 188.32488988 -176.48095387 177.20889702 -184.5625 164.75 C-185.19800781 163.78707031 -185.83351562 162.82414063 -186.48828125 161.83203125 C-202.86314226 135.50880679 -208.06240534 101.09162882 -201.46679688 70.93725586 C-193.46369484 37.8575444 -173.55219028 8.92480833 -144.5625 -9.25 C-139.39549944 -12.27884285 -134.04611727 -14.85049877 -128.5625 -17.25 C-127.92231934 -17.53214355 -127.28213867 -17.81428711 -126.62255859 -18.10498047 C-84.47875086 -36.26137593 -35.61170536 -28.09825307 0 0 Z M-134.05859375 50.52734375 C-147.8110773 67.80491583 -152.25228922 86.98225738 -150.5625 108.75 C-148.2827379 127.02830423 -137.08164576 144.25439136 -122.875 155.5625 C-105.52337472 167.83560081 -86.39820165 172.09928351 -65.34277344 169.47314453 C-47.91705562 166.48406155 -31.02396751 155.61551741 -20.47265625 141.59765625 C-8.38052407 123.57073528 -3.48286557 104.17885144 -7.1875 82.53515625 C-11.73562139 63.18533625 -23.68202999 46.25743713 -40.5625 35.75 C-72.06387533 18.0672621 -109.71610007 23.44203388 -134.05859375 50.52734375 Z " fill="#767676" transform="translate(334.5625,158.25)"/>
<path d="M0 0 C5.73817843 4.84158805 11.33715562 9.9952583 16.3125 15.625 C16.3125 16.285 16.3125 16.945 16.3125 17.625 C12.92068577 16.35753258 9.98292725 14.88764201 6.9375 12.9375 C-20.67058213 -3.70021518 -54.52352727 -9.464565 -86.01953125 -1.6953125 C-118.55787991 7.19554374 -146.32222612 26.35611097 -163.6875 55.625 C-180.2411588 84.64945209 -185.670775 119.29950037 -177.11767578 151.78955078 C-173.30912012 165.53004397 -167.31697717 179.21272725 -158.6875 190.625 C-158.6875 191.285 -158.6875 191.945 -158.6875 192.625 C-169.90916492 188.05124084 -178.31368313 174.40009134 -184.6875 164.625 C-185.32429688 163.66078125 -185.96109375 162.6965625 -186.6171875 161.703125 C-202.98314875 135.37211179 -208.18849926 100.97163008 -201.59179688 70.81225586 C-193.58869484 37.7325444 -173.67719028 8.79980833 -144.6875 -9.375 C-139.52049944 -12.40384285 -134.17111727 -14.97549877 -128.6875 -17.375 C-128.04731934 -17.65714355 -127.40713867 -17.93928711 -126.74755859 -18.22998047 C-84.5639601 -36.40351859 -35.58361844 -28.22496647 0 0 Z " fill="#5A5A5A" transform="translate(334.6875,158.375)"/>
</svg>
